<?xml version="1.0" encoding="utf-8"?>
<!-- Generator: Adobe Illustrator 11.0, SVG Export Plug-In  -->
<!DOCTYPE svg PUBLIC "-//W3C//DTD SVG 1.0//EN"    "http://www.w3.org/TR/2001/REC-SVG-20010904/DTD/svg10.dtd" [
	<!ENTITY ns_flows "http://ns.adobe.com/Flows/1.0/">
	<!ENTITY ns_svg "http://www.w3.org/2000/svg">
	<!ENTITY ns_xlink "http://www.w3.org/1999/xlink">
]>
<svg  xmlns="&ns_svg;" xmlns:xlink="&ns_xlink;" xmlns:a="http://ns.adobe.com/AdobeSVGViewerExtensions/3.0/"
	 width="20" height="20" viewBox="0 0 20 20" xml:space="preserve">
	<defs>
	</defs>
	<g>
	<path fill="#E21414" d="M12.5,11c-0.275,0-0.5-0.225-0.5-0.5v-8C12,2.225,11.775,2,11.5,2h-5C6.225,2,6,2.225,6,2.5v8
		C6,10.775,5.775,11,5.5,11h-3c-0.275,0-0.317,0.131-0.093,0.291l6.187,4.418c0.224,0.16,0.59,0.16,0.813,0l6.186-4.418
		C15.817,11.131,15.775,11,15.5,11H12.5z"/>
	<path fill="#E21414" d="M12.5,11c-0.275,0-0.5-0.225-0.5-0.5v-8C12,2.225,11.775,2,11.5,2h-5C6.225,2,6,2.225,6,2.5v8
		C6,10.775,5.775,11,5.5,11h-3c-0.275,0-0.317,0.131-0.093,0.291l6.187,4.418c0.224,0.16,0.59,0.16,0.813,0l6.186-4.418
		C15.817,11.131,15.775,11,15.5,11H12.5z"/>
	</g>

</svg>
