<?xml version="1.0" encoding="UTF-8" standalone="no"?>
<!-- Created with Inkscape (http://www.inkscape.org/) -->
<svg
   xmlns:dc="http://purl.org/dc/elements/1.1/"
   xmlns:cc="http://creativecommons.org/ns#"
   xmlns:rdf="http://www.w3.org/1999/02/22-rdf-syntax-ns#"
   xmlns:svg="http://www.w3.org/2000/svg"
   xmlns="http://www.w3.org/2000/svg"
   xmlns:sodipodi="http://sodipodi.sourceforge.net/DTD/sodipodi-0.dtd"
   xmlns:inkscape="http://www.inkscape.org/namespaces/inkscape"
   id="svg2"
   sodipodi:version="0.32"
   inkscape:version="0.46"
   width="161.46786"
   height="247.18066"
   version="1.0"
   sodipodi:docbase="C:\DOCUME~1\James\デスク~1"
   sodipodi:docname="runner.svg"
   sodipodi:modified="true"
   inkscape:output_extension="org.inkscape.output.svg.inkscape">
  <metadata
     id="metadata7">
    <rdf:RDF>
      <cc:Work
         rdf:about="">
        <dc:format>image/svg+xml</dc:format>
        <dc:type
           rdf:resource="http://purl.org/dc/dcmitype/StillImage" />
      </cc:Work>
    </rdf:RDF>
  </metadata>
  <defs
     id="defs5">
    <inkscape:perspective
       sodipodi:type="inkscape:persp3d"
       inkscape:vp_x="0 : 123.59033 : 1"
       inkscape:vp_y="0 : 1000 : 0"
       inkscape:vp_z="161.46786 : 123.59033 : 1"
       inkscape:persp3d-origin="80.733932 : 82.393555 : 1"
       id="perspective4278" />
  </defs>
  <sodipodi:namedview
     inkscape:window-height="675"
     inkscape:window-width="742"
     inkscape:pageshadow="2"
     inkscape:pageopacity="0.0"
     guidetolerance="10.0"
     gridtolerance="10.0"
     objecttolerance="10.0"
     borderopacity="1.0"
     bordercolor="#666666"
     pagecolor="#ffffff"
     id="base"
     inkscape:zoom="1.1287425"
     inkscape:cx="-55.97005"
     inkscape:cy="161.89232"
     inkscape:window-x="335"
     inkscape:window-y="88"
     inkscape:current-layer="svg2"
     showgrid="false" />
  <path
     style="fill:none;stroke:#000000;stroke-width:1px"
     d="M 118.03793,2.2923068 C 112.92641,2.3915031 107.96058,4.5736387 105.02595,9.4799584 C 101.60218,14.213325 98.951025,19.921083 100.97658,26.071454 C 101.44296,28.943347 102.25777,32.182837 102.43435,35.325555 C 102.44713,35.565816 102.45589,35.806126 102.46135,36.04432 C 102.49418,37.371767 102.40345,38.670281 102.1104,39.907683 C 102.09377,39.977896 102.07435,40.047627 102.05641,40.117322 C 101.83875,40.965076 101.49318,41.770258 101.05756,42.543155 C 100.79052,42.997742 100.50268,43.447705 100.13971,43.860891 C 99.407925,44.054563 98.680525,44.274703 97.953055,44.48981 C 92.145375,45.961383 85.995169,48.069507 81.350628,52.186588 C 79.976261,53.141899 78.643497,54.175981 77.355249,55.301236 C 77.733691,55.288647 78.107572,55.274595 78.489073,55.271288 C 78.083686,55.80282 77.689029,56.365257 77.328253,56.948406 C 74.003855,62.979415 76.42826,70.047898 76.545374,76.385014 C 75.300647,84.380151 74.548151,92.924954 77.301257,100.64333 C 77.324702,100.89717 77.359188,101.15036 77.355249,101.39205 C 77.355983,101.43121 77.355309,101.47311 77.355249,101.51185 C 77.320789,102.50367 77.043497,103.40051 76.653358,104.23716 C 75.371191,106.62498 72.742041,108.34635 71.902096,111.15527 C 71.707104,111.52401 71.532465,111.89838 71.389175,112.29332 C 71.177347,112.62884 70.938332,112.95067 70.687284,113.25168 C 70.678758,113.26211 70.668815,113.27118 70.660288,113.28162 C 69.774014,114.33783 68.741366,115.24097 68.149678,116.48612 C 67.620042,117.20099 67.097792,117.94019 66.583921,118.67236 C 66.557142,118.71354 66.52872,118.7507 66.502934,118.79216 C 66.495202,118.80321 66.48367,118.81104 66.475938,118.8221 C 65.324379,119.73741 64.511619,121.34227 63.69537,122.98496 C 62.727235,124.48519 61.767766,125.97354 60.833814,127.50718 C 53.825487,137.31461 48.023548,148.44514 46.580028,160.98966 C 46.527729,161.24797 46.469885,161.51062 46.418053,161.76833 C 38.426542,165.89369 32.516309,174.06145 30.27456,183.54091 C 25.505225,194.46533 19.551591,204.92394 12.187368,213.84884 C 8.3976492,219.15415 8.5227892,227.71372 14.104071,231.45859 C 21.216503,237.04384 31.011455,230.4686 33.136115,221.99486 C 33.527006,221.3564 33.947087,220.73674 34.350927,220.10809 C 37.022173,216.21355 40.070315,212.49943 41.828765,208.09872 C 41.910703,207.94046 41.991561,207.77882 42.071728,207.61955 C 42.167479,207.52429 42.247974,207.41702 42.341686,207.32006 C 45.550507,204.54907 47.454113,200.54685 49.819525,197.1076 C 53.976223,193.25006 58.343168,189.04085 60.590852,183.60081 C 60.969787,182.98304 61.3559,182.38672 61.751672,181.80391 C 71.206804,176.82882 75.012021,164.72369 82.052519,156.70702 C 82.202201,156.24269 82.396519,155.83934 82.592435,155.44917 C 83.386587,154.43719 84.206569,153.46265 85.07605,152.54416 C 87.638145,150.7487 91.073845,150.2667 93.714705,148.29148 C 95.102995,146.76014 96.169025,147.13478 97.116185,148.20163 C 97.351355,148.51093 97.585505,148.81479 97.818075,149.13003 C 98.809125,150.62535 99.705605,152.60376 100.73361,153.44263 C 104.45224,158.7617 108.61273,164.7697 114.47448,166.64993 C 114.94695,167.08934 114.99614,167.55117 114.79843,168.02757 C 114.1876,169.20346 111.82588,170.41714 111.69391,171.83103 C 105.80404,180.18396 101.88728,190.0344 100.30168,200.46185 C 100.20712,200.95615 100.11874,201.46281 100.03172,201.95928 C 99.521345,202.80791 99.060625,203.67906 98.600945,204.5648 C 97.634085,205.80715 96.639705,206.92741 96.819225,208.30836 C 96.713085,208.54864 96.599505,208.7854 96.495275,209.02713 C 95.482965,210.05931 95.138465,211.40058 94.956515,212.7707 C 92.931145,217.90661 91.075855,223.18595 88.531515,228.01451 C 88.369115,228.168 88.186515,228.30173 87.991595,228.43379 C 85.185959,231.97836 85.871947,238.2116 89.179415,240.77259 C 89.915525,241.55315 90.783725,242.21313 91.771015,242.65935 C 91.791765,242.67456 91.804005,242.70428 91.825005,242.71924 C 92.292415,243.27045 92.795365,243.78519 93.336765,244.24662 C 95.719965,247.56174 101.30541,247.54592 104.62101,245.62425 C 111.89042,241.53279 121.26021,243.69564 127.64843,237.17876 C 133.96087,232.11175 130.8702,220.85587 123.92301,218.73046 C 122.25452,217.65224 119.16231,218.77237 118.2269,218.25128 C 118.22527,218.24771 118.20148,218.2549 118.1999,218.25128 C 118.57009,217.12494 118.57543,215.8774 118.60484,214.65745 C 118.77177,213.84643 118.90147,213.05681 118.79381,212.44126 C 118.82588,212.25739 118.8547,212.07876 118.90179,211.90219 C 119.60305,211.03369 120.30909,210.17345 121.00747,209.29667 C 125.94937,204.22175 129.69413,198.17093 132.77764,191.68693 C 132.90412,191.43084 133.03256,191.1667 133.15558,190.90825 C 133.18322,190.84878 133.20903,190.78812 133.23657,190.72857 C 133.56272,190.03746 133.88158,189.34107 134.18142,188.63217 C 136.18225,184.04867 137.90341,179.28625 139.49959,174.52641 C 142.65225,163.93647 139.58539,152.48432 136.55705,142.24187 C 136.07285,140.17795 134.84836,138.12639 133.91146,136.16232 C 133.60106,135.38304 133.28965,134.61042 132.9936,133.85627 C 132.88823,133.48255 132.81668,133.10999 132.77764,132.74818 C 133.85841,129.6269 135.68113,127.23662 136.96199,124.33263 C 136.97769,124.30082 137.0004,124.27465 137.01598,124.24279 C 137.06307,124.13455 137.10552,124.02317 137.15096,123.91336 C 137.31545,123.56459 137.46498,123.22124 137.60989,122.86516 C 139.77982,120.59768 138.79721,116.81536 136.82701,114.77905 C 136.8184,114.6909 136.8409,114.60504 136.881,114.53946 C 142.85075,114.5757 150.4541,114.93667 153.69939,108.19037 C 156.83508,102.69608 156.23111,94.6597 152.9705,89.562374 C 147.98298,83.958036 138.31585,85.258299 134.07344,91.269442 C 133.23924,93.166738 133.19919,95.793721 130.94192,95.522135 C 130.81147,95.47586 130.67034,95.396069 130.53699,95.312496 C 135.60902,87.655527 136.5416,77.335824 142.55012,70.335407 C 145.76081,62.545409 143.80699,52.342701 136.80001,47.993791 C 135.02233,47.365437 135.25469,46.146176 135.85516,44.759347 C 135.8715,44.71869 135.89312,44.680319 135.90915,44.639553 C 136.46733,43.383252 137.2817,42.005711 137.20495,40.77619 C 138.53175,35.884628 136.80593,30.862755 138.04182,26.131351 C 138.00574,25.593333 137.91127,25.038412 137.82585,24.484181 C 137.8576,23.358886 137.94192,22.276316 138.44676,21.369531 C 138.66644,21.208378 138.93335,21.07611 139.28363,20.980201 C 143.26779,15.945207 138.84988,7.4166724 133.15558,7.5033544 C 132.56499,7.0781854 131.96591,6.6604994 131.37386,6.2455151 C 128.4536,3.1611377 124.20849,2.0893266 120.22459,2.3821524 C 119.49355,2.3135104 118.76814,2.2781356 118.03793,2.2923068 z M 110.61408,43.561406 C 110.61746,43.574838 110.61125,43.578949 110.61408,43.591354 C 110.6017,43.579017 110.58438,43.575334 110.56009,43.591354 C 110.57639,43.583381 110.59054,43.565073 110.61408,43.561406 z"
     id="path3278" />
</svg>
